<svg width="197" height="200" viewBox="0 0 197 200" fill="none" xmlns="http://www.w3.org/2000/svg">
<g clip-path="url(#clip0_0_4855)">
<path d="M186.469 91.8735H134.918C134.864 91.8735 134.846 91.8078 134.894 91.7779L179.808 65.9194C184.232 63.373 185.749 57.7362 183.195 53.3248C180.641 48.9135 174.988 47.4012 170.564 49.9476L130.014 73.2896C129.966 73.3135 129.918 73.2597 129.948 73.2178L155.9 34.3583C158.73 30.1203 157.579 24.3939 153.328 21.5725C149.078 18.7512 143.335 19.8989 140.505 24.1369L109.559 70.4682C109.529 70.5101 109.469 70.4921 109.469 70.4383V15.081C109.469 9.5698 104.943 5.12257 99.4331 5.58283C94.6911 5.98332 90.9742 9.9404 90.9742 14.7702V69.3026C90.9742 69.3504 90.9082 69.3743 90.8843 69.3325L61.4788 23.3538C58.7331 19.062 53.0138 17.8008 48.7094 20.5384C44.405 23.2761 43.1401 28.9786 45.8858 33.2704L72.9352 75.567C72.9652 75.6088 72.9172 75.6626 72.8693 75.6387L28.7281 51.5495C24.2498 49.1048 18.6265 50.7426 16.1745 55.2077C13.7226 59.6729 15.3652 65.2798 19.8435 67.7246L63.8948 91.7779C63.9427 91.8018 63.9247 91.8735 63.8708 91.8735H13.9564C8.42901 91.8735 3.96873 96.3865 4.43034 101.88C4.83201 106.608 8.8007 110.314 13.6447 110.314H65.5074C65.5614 110.314 65.5794 110.38 65.5314 110.41L20.6228 136.262C16.1985 138.809 14.6818 144.445 17.2357 148.857C19.7895 153.268 25.4428 154.78 29.8671 152.234L70.4173 128.892C70.4653 128.868 70.5132 128.922 70.4833 128.964L44.5309 167.823C41.7013 172.061 42.8523 177.788 47.1028 180.609C51.3532 183.43 57.0964 182.283 59.9261 178.045L90.8723 131.713C90.9022 131.671 90.9622 131.689 90.9622 131.743V187.095C90.9622 192.606 95.4884 197.053 100.998 196.593C105.74 196.192 109.457 192.235 109.457 187.405V132.873C109.457 132.825 109.523 132.801 109.547 132.843L138.784 178.559C141.758 183.203 147.975 184.53 152.369 181.189C156.152 178.314 157.153 172.976 154.551 168.905L127.502 126.609C127.472 126.567 127.526 126.513 127.568 126.537L171.697 150.632C176.175 153.077 181.798 151.439 184.25 146.974C186.702 142.509 185.06 136.902 180.581 134.457L136.53 110.404C136.482 110.38 136.5 110.308 136.554 110.308H186.78C191.624 110.308 195.599 106.596 195.995 101.874C196.462 96.3865 191.996 91.8735 186.469 91.8735Z" fill="#A4A8C0" stroke="#A4A8C0" stroke-miterlimit="10"/>
<path d="M135.805 101.073C125.865 90.2955 113.078 84.8679 100.255 84.9456C100.237 84.9456 100.225 84.9456 100.207 84.9456C100.189 84.9456 100.177 84.9456 100.159 84.9456C87.3355 84.8679 74.5541 90.2955 64.6084 101.073V101.115C74.5481 111.892 87.3355 117.32 100.159 117.242C100.177 117.242 100.189 117.242 100.207 117.242C100.225 117.242 100.237 117.242 100.255 117.242C113.078 117.32 125.859 111.892 135.805 101.115L135.823 101.091L135.805 101.073Z" fill="#F3EDE6"/>
<path d="M100.207 113.781C107.236 113.781 112.934 108.099 112.934 101.091C112.934 94.0822 107.236 88.4006 100.207 88.4006C93.1777 88.4006 87.4795 94.0822 87.4795 101.091C87.4795 108.099 93.1777 113.781 100.207 113.781Z" fill="#1A1A1A"/>
<path d="M93.1987 98.9389C95.0694 98.9389 96.5859 97.4268 96.5859 95.5616C96.5859 93.6964 95.0694 92.1843 93.1987 92.1843C91.328 92.1843 89.8115 93.6964 89.8115 95.5616C89.8115 97.4268 91.328 98.9389 93.1987 98.9389Z" fill="#F3EDE6"/>
</g>
<defs>
<clipPath id="clip0_0_4855">
<rect width="196.33" height="200" fill="white"/>
</clipPath>
</defs>
</svg>
