<svg width="83" height="17" viewBox="0 0 83 17" fill="none" xmlns="http://www.w3.org/2000/svg">
<path d="M2 15.6711L7.96668 3.73778C8.7367 2.19773 10.9344 2.19773 11.7045 3.73778L15.8022 11.9334C16.5723 13.4734 18.77 13.4734 19.54 11.9334L23.6378 3.73778C24.4078 2.19773 26.6056 2.19773 27.3756 3.73778L31.4734 11.9334C32.2434 13.4734 34.4411 13.4734 35.2112 11.9334L39.3089 3.73778C40.079 2.19773 42.2767 2.19773 43.0467 3.73778L47.1445 11.9334C47.9145 13.4734 50.1123 13.4734 50.8823 11.9334L54.9801 3.73778C55.7501 2.19773 57.9478 2.19773 58.7179 3.73778L62.8156 11.9334C63.5857 13.4734 65.7834 13.4734 66.5534 11.9334L70.6512 3.73778C71.4212 2.19773 73.619 2.19773 74.389 3.73778L80.3557 15.6711" stroke="#55F5C5" stroke-width="4"/>
</svg>
