<svg width="308" height="722" viewBox="0 0 308 722" fill="none" xmlns="http://www.w3.org/2000/svg">
<line x1="7" y1="4.37114e-08" x2="6.99997" y2="720" stroke="#373737" stroke-width="2"/>
<line x1="37" y1="4.37114e-08" x2="37" y2="720" stroke="#373737" stroke-width="2"/>
<line x1="67" y1="4.37114e-08" x2="67" y2="720" stroke="#373737" stroke-width="2"/>
<line x1="97" y1="4.37114e-08" x2="97" y2="720" stroke="#373737" stroke-width="2"/>
<line x1="127" y1="4.37114e-08" x2="127" y2="720" stroke="#373737" stroke-width="2"/>
<line x1="157" y1="4.37114e-08" x2="157" y2="720" stroke="#373737" stroke-width="2"/>
<line x1="187" y1="4.37114e-08" x2="187" y2="720" stroke="#373737" stroke-width="2"/>
<line x1="217" y1="4.37114e-08" x2="217" y2="720" stroke="#373737" stroke-width="2"/>
<line x1="247" y1="4.37114e-08" x2="247" y2="720" stroke="#373737" stroke-width="2"/>
<line x1="277" y1="4.37114e-08" x2="277" y2="720" stroke="#373737" stroke-width="2"/>
<line x1="307" y1="4.37114e-08" x2="307" y2="720" stroke="#373737" stroke-width="2"/>
<line x1="306" y1="1" x2="-144" y2="0.999961" stroke="#373737" stroke-width="2"/>
<line x1="306" y1="31" x2="-144" y2="31" stroke="#373737" stroke-width="2"/>
<line x1="306" y1="61" x2="-144" y2="61" stroke="#373737" stroke-width="2"/>
<line x1="306" y1="91" x2="-144" y2="91" stroke="#373737" stroke-width="2"/>
<line x1="306" y1="121" x2="-144" y2="121" stroke="#373737" stroke-width="2"/>
<line x1="306" y1="151" x2="-144" y2="151" stroke="#373737" stroke-width="2"/>
<line x1="306" y1="181" x2="-144" y2="181" stroke="#373737" stroke-width="2"/>
<line x1="306" y1="211" x2="-144" y2="211" stroke="#373737" stroke-width="2"/>
<line x1="306" y1="241" x2="-144" y2="241" stroke="#373737" stroke-width="2"/>
<line x1="306" y1="271" x2="-144" y2="271" stroke="#373737" stroke-width="2"/>
<line x1="306" y1="301" x2="-144" y2="301" stroke="#373737" stroke-width="2"/>
<line x1="306" y1="331" x2="-144" y2="331" stroke="#373737" stroke-width="2"/>
<line x1="306" y1="361" x2="-144" y2="361" stroke="#373737" stroke-width="2"/>
<line x1="306" y1="391" x2="-144" y2="391" stroke="#373737" stroke-width="2"/>
<line x1="306" y1="421" x2="-144" y2="421" stroke="#373737" stroke-width="2"/>
<line x1="306" y1="451" x2="-144" y2="451" stroke="#373737" stroke-width="2"/>
<line x1="306" y1="481" x2="-144" y2="481" stroke="#373737" stroke-width="2"/>
<line x1="306" y1="511" x2="-144" y2="511" stroke="#373737" stroke-width="2"/>
<line x1="306" y1="541" x2="-144" y2="541" stroke="#373737" stroke-width="2"/>
<line x1="306" y1="571" x2="-144" y2="571" stroke="#373737" stroke-width="2"/>
<line x1="306" y1="601" x2="-144" y2="601" stroke="#373737" stroke-width="2"/>
<line x1="306" y1="631" x2="-144" y2="631" stroke="#373737" stroke-width="2"/>
<line x1="306" y1="661" x2="-144" y2="661" stroke="#373737" stroke-width="2"/>
<line x1="306" y1="691" x2="-144" y2="691" stroke="#373737" stroke-width="2"/>
<line x1="306" y1="721" x2="-144" y2="721" stroke="#373737" stroke-width="2"/>
</svg>
